<svg xmlns="http://www.w3.org/2000/svg" viewBox="0 0 32 32" shape-rendering="crispEdges">
  <rect width="32" height="32" fill="#050308" />
  <rect x="4" y="3" width="24" height="26" fill="#ff4fb8" opacity="0.2" />
  <rect x="5" y="4" width="22" height="24" fill="#9d4edd" opacity="0.16" />

  <rect x="7" y="7" width="18" height="14" fill="#050308" />
  <rect x="5" y="11" width="22" height="9" fill="#050308" />
  <rect x="6" y="5" width="4" height="6" fill="#050308" />
  <rect x="22" y="5" width="4" height="6" fill="#050308" />
  <rect x="8" y="3" width="3" height="4" fill="#050308" />
  <rect x="21" y="3" width="3" height="4" fill="#050308" />
  <rect x="10" y="20" width="13" height="7" fill="#050308" />
  <rect x="23" y="20" width="4" height="4" fill="#050308" />
  <rect x="26" y="16" width="3" height="6" fill="#050308" />
  <rect x="28" y="14" width="2" height="3" fill="#050308" />

  <rect x="8" y="8" width="16" height="12" fill="#17101f" />
  <rect x="6" y="12" width="20" height="7" fill="#17101f" />
  <rect x="11" y="21" width="11" height="5" fill="#120b1a" />
  <rect x="24" y="21" width="2" height="2" fill="#120b1a" />
  <rect x="27" y="17" width="1" height="4" fill="#120b1a" />

  <rect x="8" y="7" width="2" height="3" fill="#ff4fb8" />
  <rect x="22" y="7" width="2" height="3" fill="#ff4fb8" />
  <rect x="11" y="9" width="1" height="3" fill="#050308" />
  <rect x="15" y="8" width="2" height="4" fill="#050308" />
  <rect x="20" y="9" width="1" height="3" fill="#050308" />

  <rect x="10" y="13" width="4" height="1" fill="#fff05a" />
  <rect x="11" y="12" width="2" height="3" fill="#fff05a" />
  <rect x="12" y="13" width="1" height="1" fill="#050308" />
  <rect x="18" y="13" width="4" height="1" fill="#fff05a" />
  <rect x="19" y="12" width="2" height="3" fill="#fff05a" />
  <rect x="19" y="13" width="1" height="1" fill="#050308" />

  <rect x="15" y="16" width="2" height="1" fill="#ff4fb8" />
  <rect x="16" y="17" width="1" height="2" fill="#17101f" />
  <rect x="2" y="15" width="6" height="1" fill="#c77dff" />
  <rect x="24" y="15" width="6" height="1" fill="#c77dff" />
  <rect x="4" y="18" width="4" height="1" fill="#c77dff" />
  <rect x="24" y="18" width="4" height="1" fill="#c77dff" />
  <rect x="12" y="25" width="2" height="2" fill="#050308" />
  <rect x="19" y="25" width="2" height="2" fill="#050308" />
</svg>
